<svg width="41" height="24" viewBox="0 0 41 24" fill="none" xmlns="http://www.w3.org/2000/svg">
<g clip-path="url(#clip0_52_189)">
<path d="M1.42917 2.82446H39.5699C40.3597 2.82446 40.9996 2.19191 40.9996 1.41223C40.9996 0.632558 40.3597 0 39.5699 0H1.42917C0.639347 0 -0.000488281 0.632558 -0.000488281 1.41223C-0.000488281 2.19138 0.639347 2.82446 1.42917 2.82446Z" fill="black"/>
<path d="M1.4293 13.1876H39.57C40.3598 13.1876 40.9997 12.555 40.9997 11.7753C40.9997 10.9957 40.3598 10.3631 39.57 10.3631H1.4293C0.639469 10.3631 -0.000366211 10.9957 -0.000366211 11.7753C-0.000366211 12.555 0.639469 13.1876 1.4293 13.1876Z" fill="black"/>
<path d="M1.4293 23.5506H39.57C40.3598 23.5506 40.9997 22.918 40.9997 22.1383C40.9997 21.3586 40.3598 20.7261 39.57 20.7261H1.4293C0.639469 20.7261 -0.000366211 21.3586 -0.000366211 22.1383C-0.000366211 22.9191 0.639469 23.5506 1.4293 23.5506Z" fill="black"/>
</g>
<defs>
<clipPath id="clip0_52_189">
<rect width="41" height="24" fill="white"/>
</clipPath>
</defs>
</svg>
