<svg width="24" height="24" viewBox="0 0 24 24" fill="none" xmlns="http://www.w3.org/2000/svg">
<path d="M0.739578 3.73689L20.4734 23.4707C20.882 23.8793 21.6604 23.7631 22.2117 23.2118C22.763 22.6605 22.8792 21.8821 22.4706 21.4735L2.73677 1.7397C2.32812 1.33105 1.54978 1.44729 0.998475 1.9986C0.447531 2.54954 0.330926 3.32824 0.739578 3.73689Z" fill="black"/>
<path d="M2.73689 22.9351L22.4707 3.20131C22.8793 2.79268 22.7631 2.01432 22.2118 1.46301C21.6605 0.911701 20.8821 0.795492 20.4735 1.20412L0.739699 20.9379C0.331047 21.3466 0.447291 22.1249 0.998601 22.6762C1.54991 23.2275 2.32824 23.3438 2.73689 22.9351Z" fill="black"/>
</svg>
