<svg width="30" height="26" viewBox="0 0 30 26" fill="none" xmlns="http://www.w3.org/2000/svg">
<path d="M15.4802 2.35109L15.0142 2.79663L14.5483 2.34982C12.939 0.834633 10.7709 -0.00985094 8.51562 8.67238e-05C6.26035 0.0100244 4.10041 0.87358 2.50568 2.40289C0.91095 3.9322 0.0104532 6.00353 9.04337e-05 8.16628C-0.0102723 10.329 0.870337 12.4082 2.45035 13.9515L2.91626 14.3983L15.0142 26L27.1122 14.3983L27.5781 13.9515C29.1456 12.4058 30.0155 10.3305 29.9998 8.17447C29.984 6.01845 29.0839 3.95503 27.494 2.43054C25.9041 0.906044 23.7523 0.0430274 21.5041 0.028159C19.2558 0.0132906 17.0918 0.847766 15.4802 2.35109V2.35109Z" fill="#FF0000"/>
</svg>
