<svg width="30" height="26" viewBox="0 0 30 26" fill="none" xmlns="http://www.w3.org/2000/svg">
<path d="M14.4937 25.7833L2.47086 14.0111C1.95925 13.5417 1.55727 13 1.19183 12.4222C-0.781524 9.20833 -0.269913 5.09167 2.47086 2.41944C4.04224 0.866667 6.16177 0 8.39094 0C11.8991 0 14.0917 2.02222 15.0053 3.17778C15.9189 2.02222 18.1115 0 21.6197 0C23.8489 0 25.9684 0.866667 27.5398 2.41944C30.244 5.09167 30.7922 9.20833 28.8188 12.4222C28.4534 13 28.0514 13.5417 27.5398 14.0111L15.5169 25.7833C15.2246 26.0722 14.7861 26.0722 14.4937 25.7833ZM8.39094 1.44444C6.52721 1.44444 4.80966 2.16667 3.49408 3.43056C1.26492 5.63333 0.826397 9.02778 2.43432 11.6639C2.72667 12.1333 3.0921 12.6028 3.49408 13L15.0053 24.2667L26.5166 13C26.9186 12.6028 27.284 12.1694 27.5764 11.6639C29.1843 8.99167 28.7823 5.59722 26.5166 3.43056C25.201 2.16667 23.4469 1.44444 21.6197 1.44444C18.9886 1.44444 16.796 2.85278 15.6266 4.80278C15.3342 5.27222 14.6399 5.27222 14.3476 4.80278C13.2147 2.85278 11.0221 1.44444 8.39094 1.44444Z" fill="black"/>
</svg>
