<svg width="24" height="28" viewBox="0 0 24 28" fill="none" xmlns="http://www.w3.org/2000/svg">
<path d="M22.7375 26.5C22.7375 21.6625 17.925 17.75 12 17.75C6.07495 17.75 1.26245 21.6625 1.26245 26.5M12 14C13.6576 14 15.2473 13.3415 16.4194 12.1694C17.5915 10.9973 18.25 9.4076 18.25 7.75C18.25 6.0924 17.5915 4.50269 16.4194 3.33058C15.2473 2.15848 13.6576 1.5 12 1.5C10.3423 1.5 8.75264 2.15848 7.58053 3.33058C6.40843 4.50269 5.74995 6.0924 5.74995 7.75C5.74995 9.4076 6.40843 10.9973 7.58053 12.1694C8.75264 13.3415 10.3423 14 12 14V14Z" stroke="white" stroke-width="1.5" stroke-linecap="round" stroke-linejoin="round"/>
</svg>
