<svg width="17" height="19" viewBox="0 0 17 19" fill="none" xmlns="http://www.w3.org/2000/svg">
<path d="M8.49999 10.7513C8.8585 10.7513 9.2135 10.6806 9.54472 10.5434C9.87593 10.4062 10.1769 10.2052 10.4304 9.95165C10.6839 9.69815 10.885 9.3972 11.0222 9.06598C11.1594 8.73476 11.23 8.37976 11.23 8.02125C11.23 7.66274 11.1594 7.30774 11.0222 6.97653C10.885 6.64531 10.6839 6.34435 10.4304 6.09085C10.1769 5.83735 9.87593 5.63626 9.54472 5.49906C9.2135 5.36186 8.8585 5.29125 8.49999 5.29125C7.77595 5.29125 7.08156 5.57888 6.56959 6.09085C6.05761 6.60282 5.76999 7.29721 5.76999 8.02125C5.76999 8.74529 6.05761 9.43968 6.56959 9.95165C7.08156 10.4636 7.77595 10.7513 8.49999 10.7513Z" stroke="white" stroke-width="1.5"/>
<path d="M1.16749 6.42875C2.89124 -1.14875 14.1175 -1.14 15.8325 6.4375C16.8387 10.8825 14.0737 14.645 11.65 16.9725C10.8031 17.7893 9.67227 18.2458 8.49561 18.2458C7.31895 18.2458 6.18817 17.7893 5.34124 16.9725C2.92624 14.645 0.16124 10.8738 1.16749 6.42875Z" stroke="white" stroke-width="1.5"/>
</svg>
