<svg width="32" height="32" viewBox="0 0 32 32" fill="none" xmlns="http://www.w3.org/2000/svg">
<mask id="mask0_175_191" style="mask-type:alpha" maskUnits="userSpaceOnUse" x="1" y="5" width="31" height="26">
<path d="M9.33331 9.33325H29.9293C30.899 9.33325 31.5444 10.3355 31.1431 11.2183L26.3991 21.6551C25.75 23.0831 24.3262 23.9999 22.7577 23.9999H9.33331V9.33325Z" fill="url(#paint0_linear_175_191)"/>
<path fill-rule="evenodd" clip-rule="evenodd" d="M6.66665 5.33325H1.33331C1.33331 7.54239 3.12417 9.33325 5.33331 9.33325V19.9999C5.33331 22.2091 7.12417 23.9999 9.33331 23.9999V9.33325V7.99992C9.33331 6.52716 8.13941 5.33325 6.66665 5.33325ZM10.6666 27.9999C10.6666 26.5272 9.47274 25.3333 7.99998 25.3333H5.33331V27.9999C5.33331 29.4727 6.52722 30.6666 7.99998 30.6666C9.47274 30.6666 10.6666 29.4727 10.6666 27.9999ZM20 25.3333H17.3333V27.9999C17.3333 29.4727 18.5272 30.6666 20 30.6666C21.4727 30.6666 22.6666 29.4727 22.6666 27.9999C22.6666 26.5272 21.4727 25.3333 20 25.3333Z" fill="black"/>
</mask>
<g mask="url(#mask0_175_191)">
<path d="M0 0H32V32H0V0Z" fill="#333333"/>
</g>
<defs>
<linearGradient id="paint0_linear_175_191" x1="20" y1="10.6666" x2="20" y2="23.9999" gradientUnits="userSpaceOnUse">
<stop stop-opacity="0.85"/>
<stop offset="1" stop-opacity="0.5"/>
</linearGradient>
</defs>
</svg>
