<svg width="146" height="24" viewBox="0 0 146 24" fill="none" xmlns="http://www.w3.org/2000/svg">
<path d="M0.938388 23V1.18182H9.95117C11.5847 1.18182 12.9945 1.50142 14.1806 2.14062C15.3738 2.77273 16.2935 3.65696 16.9398 4.79332C17.5861 5.92259 17.9093 7.23651 17.9093 8.73508C17.9093 10.2408 17.579 11.5582 16.9185 12.6875C16.2651 13.8097 15.3311 14.6797 14.1167 15.2976C12.9022 15.9155 11.4604 16.2244 9.79137 16.2244H4.23029V12.0696H8.81126C9.60671 12.0696 10.2708 11.9311 10.8034 11.6541C11.3432 11.3771 11.7516 10.9901 12.0286 10.4929C12.3056 9.98864 12.4441 9.4027 12.4441 8.73508C12.4441 8.06037 12.3056 7.47798 12.0286 6.98793C11.7516 6.49077 11.3432 6.10724 10.8034 5.83736C10.2637 5.56747 9.59961 5.43253 8.81126 5.43253H6.21183V23H0.938388ZM41.1017 12.0909C41.1017 14.4915 40.6401 16.5263 39.7168 18.1953C38.7935 19.8643 37.5435 21.1321 35.9668 21.9986C34.3972 22.8651 32.6358 23.2983 30.6827 23.2983C28.7225 23.2983 26.9576 22.8615 25.388 21.9879C23.8184 21.1143 22.5719 19.8466 21.6486 18.1847C20.7324 16.5156 20.2743 14.4844 20.2743 12.0909C20.2743 9.69034 20.7324 7.65554 21.6486 5.98651C22.5719 4.31747 23.8184 3.04972 25.388 2.18324C26.9576 1.31676 28.7225 0.883522 30.6827 0.883522C32.6358 0.883522 34.3972 1.31676 35.9668 2.18324C37.5435 3.04972 38.7935 4.31747 39.7168 5.98651C40.6401 7.65554 41.1017 9.69034 41.1017 12.0909ZM35.7111 12.0909C35.7111 10.6705 35.5087 9.47017 35.1039 8.49006C34.7061 7.50994 34.1309 6.76775 33.378 6.26349C32.6323 5.75923 31.7338 5.5071 30.6827 5.5071C29.6387 5.5071 28.7402 5.75923 27.9874 6.26349C27.2346 6.76775 26.6557 7.50994 26.2509 8.49006C25.8532 9.47017 25.6543 10.6705 25.6543 12.0909C25.6543 13.5114 25.8532 14.7116 26.2509 15.6918C26.6557 16.6719 27.2346 17.4141 27.9874 17.9183C28.7402 18.4226 29.6387 18.6747 30.6827 18.6747C31.7338 18.6747 32.6323 18.4226 33.378 17.9183C34.1309 17.4141 34.7061 16.6719 35.1039 15.6918C35.5087 14.7116 35.7111 13.5114 35.7111 12.0909ZM49.454 1.18182V23H44.1806V1.18182H49.454ZM52.69 23V19.9957L63.2901 5.46449H52.7006V1.18182H69.9592V4.18608L59.359 18.7173H69.9485V23H52.69ZM92.7521 12.0909C92.7521 14.4915 92.2905 16.5263 91.3672 18.1953C90.4439 19.8643 89.1939 21.1321 87.6172 21.9986C86.0476 22.8651 84.2862 23.2983 82.3331 23.2983C80.3729 23.2983 78.608 22.8615 77.0384 21.9879C75.4688 21.1143 74.2223 19.8466 73.299 18.1847C72.3828 16.5156 71.9247 14.4844 71.9247 12.0909C71.9247 9.69034 72.3828 7.65554 73.299 5.98651C74.2223 4.31747 75.4688 3.04972 77.0384 2.18324C78.608 1.31676 80.3729 0.883522 82.3331 0.883522C84.2862 0.883522 86.0476 1.31676 87.6172 2.18324C89.1939 3.04972 90.4439 4.31747 91.3672 5.98651C92.2905 7.65554 92.7521 9.69034 92.7521 12.0909ZM87.3615 12.0909C87.3615 10.6705 87.1591 9.47017 86.7543 8.49006C86.3565 7.50994 85.7813 6.76775 85.0284 6.26349C84.2827 5.75923 83.3842 5.5071 82.3331 5.5071C81.2891 5.5071 80.3906 5.75923 79.6378 6.26349C78.8849 6.76775 78.3061 7.50994 77.9013 8.49006C77.5036 9.47017 77.3047 10.6705 77.3047 12.0909C77.3047 13.5114 77.5036 14.7116 77.9013 15.6918C78.3061 16.6719 78.8849 17.4141 79.6378 17.9183C80.3906 18.4226 81.2891 18.6747 82.3331 18.6747C83.3842 18.6747 84.2827 18.4226 85.0284 17.9183C85.7813 17.4141 86.3565 16.6719 86.7543 15.6918C87.1591 14.7116 87.3615 13.5114 87.3615 12.0909ZM114.4 1.18182V23H109.925L101.243 10.4077H101.104V23H95.831V1.18182H100.369L108.956 13.7528H109.137V1.18182H114.4ZM122.989 1.18182V23H117.716V1.18182H122.989ZM126.3 23V1.18182H131.573V10.4077H131.861L139.073 1.18182H145.284L137.55 10.919L145.423 23H139.116L133.683 14.424L131.573 17.0874V23H126.3Z" fill="black"/>
</svg>
