<svg width="218" height="35" viewBox="0 0 218 35" fill="none" xmlns="http://www.w3.org/2000/svg">
<path d="M0.657582 34V1.27273H14.1768C16.627 1.27273 18.7417 1.75213 20.5209 2.71094C22.3106 3.65909 23.6903 4.98544 24.6597 6.68998C25.6292 8.38388 26.1139 10.3548 26.1139 12.6026C26.1139 14.8611 25.6185 16.8374 24.6278 18.5312C23.6476 20.2145 22.2467 21.5195 20.425 22.4464C18.6032 23.3732 16.4406 23.8366 13.9371 23.8366H5.59544V17.6044H12.4669C13.6601 17.6044 14.6562 17.3967 15.4552 16.9812C16.2648 16.5657 16.8774 15.9851 17.2929 15.2393C17.7084 14.483 17.9161 13.604 17.9161 12.6026C17.9161 11.5906 17.7084 10.717 17.2929 9.98189C16.8774 9.23615 16.2648 8.66087 15.4552 8.25604C14.6455 7.85121 13.6494 7.64879 12.4669 7.64879H8.56774V34H0.657582ZM60.9026 17.6364C60.9026 21.2372 60.2101 24.2894 58.8252 26.793C57.4403 29.2965 55.5653 31.1982 53.2002 32.4979C50.8458 33.7976 48.2037 34.4474 45.2741 34.4474C42.3337 34.4474 39.6863 33.7923 37.3319 32.4819C34.9775 31.1715 33.1079 29.2699 31.7229 26.777C30.3486 24.2734 29.6615 21.2266 29.6615 17.6364C29.6615 14.0355 30.3486 10.9833 31.7229 8.47976C33.1079 5.97621 34.9775 4.07457 37.3319 2.77486C39.6863 1.47514 42.3337 0.825283 45.2741 0.825283C48.2037 0.825283 50.8458 1.47514 53.2002 2.77486C55.5653 4.07457 57.4403 5.97621 58.8252 8.47976C60.2101 10.9833 60.9026 14.0355 60.9026 17.6364ZM52.8167 17.6364C52.8167 15.5057 52.5131 13.7053 51.9058 12.2351C51.3092 10.7649 50.4463 9.65163 49.317 8.89524C48.1984 8.13885 46.8508 7.76065 45.2741 7.76065C43.708 7.76065 42.3604 8.13885 41.2311 8.89524C40.1018 9.65163 39.2336 10.7649 38.6263 12.2351C38.0297 13.7053 37.7314 15.5057 37.7314 17.6364C37.7314 19.767 38.0297 21.5675 38.6263 23.0376C39.2336 24.5078 40.1018 25.6211 41.2311 26.3775C42.3604 27.1339 43.708 27.5121 45.2741 27.5121C46.8508 27.5121 48.1984 27.1339 49.317 26.3775C50.4463 25.6211 51.3092 24.5078 51.9058 23.0376C52.5131 21.5675 52.8167 19.767 52.8167 17.6364ZM73.431 1.27273V34H65.5209V1.27273H73.431ZM78.285 34V29.4936L94.1852 7.69673H78.301V1.27273H104.189V5.77912L88.2885 27.576H104.173V34H78.285ZM138.378 17.6364C138.378 21.2372 137.686 24.2894 136.301 26.793C134.916 29.2965 133.041 31.1982 130.676 32.4979C128.321 33.7976 125.679 34.4474 122.75 34.4474C119.809 34.4474 117.162 33.7923 114.808 32.4819C112.453 31.1715 110.583 29.2699 109.199 26.777C107.824 24.2734 107.137 21.2266 107.137 17.6364C107.137 14.0355 107.824 10.9833 109.199 8.47976C110.583 5.97621 112.453 4.07457 114.808 2.77486C117.162 1.47514 119.809 0.825283 122.75 0.825283C125.679 0.825283 128.321 1.47514 130.676 2.77486C133.041 4.07457 134.916 5.97621 136.301 8.47976C137.686 10.9833 138.378 14.0355 138.378 17.6364ZM130.292 17.6364C130.292 15.5057 129.989 13.7053 129.381 12.2351C128.785 10.7649 127.922 9.65163 126.793 8.89524C125.674 8.13885 124.326 7.76065 122.75 7.76065C121.184 7.76065 119.836 8.13885 118.707 8.89524C117.577 9.65163 116.709 10.7649 116.102 12.2351C115.505 13.7053 115.207 15.5057 115.207 17.6364C115.207 19.767 115.505 21.5675 116.102 23.0376C116.709 24.5078 117.577 25.6211 118.707 26.3775C119.836 27.1339 121.184 27.5121 122.75 27.5121C124.326 27.5121 125.674 27.1339 126.793 26.3775C127.922 25.6211 128.785 24.5078 129.381 23.0376C129.989 21.5675 130.292 19.767 130.292 17.6364ZM170.85 1.27273V34H164.138L151.114 15.1115H150.907V34H142.996V1.27273H149.804L162.684 20.1293H162.956V1.27273H170.85ZM183.734 1.27273V34H175.824V1.27273H183.734ZM188.7 34V1.27273H196.61V15.1115H197.041L207.86 1.27273H217.176L205.575 15.8786L217.384 34H207.924L199.774 21.136L196.61 25.131V34H188.7Z" fill="black"/>
</svg>
